G04 #@! TF.FileFunction,Legend,Top*
%FSLAX46Y46*%
G04 Gerber Fmt 4.6, Leading zero omitted, Abs format (unit mm)*
G04 Created by KiCad (PCBNEW 4.0.4-stable) date Thursday, December 08, 2016 'AMt' 10:27:16 AM*
%MOMM*%
%LPD*%
G01*
G04 APERTURE LIST*
%ADD10C,0.100000*%
%ADD11C,0.120000*%
%ADD12C,0.150000*%
G04 APERTURE END LIST*
D10*
D11*
X134599828Y-120115370D02*
X133942218Y-120772979D01*
X132365370Y-122349828D02*
X133022979Y-121692218D01*
X132365370Y-122349828D02*
X133892721Y-123877178D01*
X134599828Y-120115370D02*
X135632203Y-121147746D01*
X126580000Y-124740000D02*
X125650000Y-124740000D01*
X123420000Y-124740000D02*
X124350000Y-124740000D01*
X123420000Y-124740000D02*
X123420000Y-126900000D01*
X126580000Y-124740000D02*
X126580000Y-126200000D01*
X123420000Y-100760000D02*
X124350000Y-100760000D01*
X126580000Y-100760000D02*
X125650000Y-100760000D01*
X126580000Y-100760000D02*
X126580000Y-98600000D01*
X123420000Y-100760000D02*
X123420000Y-99300000D01*
X132365370Y-103150172D02*
X133022979Y-103807782D01*
X134599828Y-105384630D02*
X133942218Y-104727021D01*
X134599828Y-105384630D02*
X136127178Y-103857279D01*
X132365370Y-103150172D02*
X133397746Y-102117797D01*
X136990000Y-111170000D02*
X136990000Y-112100000D01*
X136990000Y-114330000D02*
X136990000Y-113400000D01*
X136990000Y-114330000D02*
X139150000Y-114330000D01*
X136990000Y-111170000D02*
X138450000Y-111170000D01*
X117634630Y-122349828D02*
X116977021Y-121692218D01*
X115400172Y-120115370D02*
X116057782Y-120772979D01*
X115400172Y-120115370D02*
X113872822Y-121642721D01*
X117634630Y-122349828D02*
X116602254Y-123382203D01*
X113010000Y-114330000D02*
X113010000Y-113400000D01*
X113010000Y-111170000D02*
X113010000Y-112100000D01*
X113010000Y-111170000D02*
X110850000Y-111170000D01*
X113010000Y-114330000D02*
X111550000Y-114330000D01*
X115400172Y-105384630D02*
X116057782Y-104727021D01*
X117634630Y-103150172D02*
X116977021Y-103807782D01*
X117634630Y-103150172D02*
X116107279Y-101622822D01*
X115400172Y-105384630D02*
X114367797Y-104352254D01*
D12*
X131242081Y-123167378D02*
X131949188Y-122460271D01*
X132050203Y-123840813D02*
X131982859Y-123840813D01*
X131848172Y-123773470D01*
X131780829Y-123706126D01*
X131713485Y-123571439D01*
X131713485Y-123436752D01*
X131747157Y-123335737D01*
X131848172Y-123167378D01*
X131949188Y-123066362D01*
X132117546Y-122965347D01*
X132218561Y-122931675D01*
X132353248Y-122931675D01*
X132487936Y-122999020D01*
X132555279Y-123066363D01*
X132622623Y-123201050D01*
X132622623Y-123268393D01*
X133060356Y-124042843D02*
X132588951Y-124514248D01*
X133161370Y-123605110D02*
X132487935Y-123941828D01*
X132925668Y-124379561D01*
X122952381Y-126476190D02*
X121952381Y-126476190D01*
X122857143Y-125428571D02*
X122904762Y-125476190D01*
X122952381Y-125619047D01*
X122952381Y-125714285D01*
X122904762Y-125857143D01*
X122809524Y-125952381D01*
X122714286Y-126000000D01*
X122523810Y-126047619D01*
X122380952Y-126047619D01*
X122190476Y-126000000D01*
X122095238Y-125952381D01*
X122000000Y-125857143D01*
X121952381Y-125714285D01*
X121952381Y-125619047D01*
X122000000Y-125476190D01*
X122047619Y-125428571D01*
X121952381Y-124523809D02*
X121952381Y-125000000D01*
X122428571Y-125047619D01*
X122380952Y-125000000D01*
X122333333Y-124904762D01*
X122333333Y-124666666D01*
X122380952Y-124571428D01*
X122428571Y-124523809D01*
X122523810Y-124476190D01*
X122761905Y-124476190D01*
X122857143Y-124523809D01*
X122904762Y-124571428D01*
X122952381Y-124666666D01*
X122952381Y-124904762D01*
X122904762Y-125000000D01*
X122857143Y-125047619D01*
X127952381Y-100976190D02*
X126952381Y-100976190D01*
X127857143Y-99928571D02*
X127904762Y-99976190D01*
X127952381Y-100119047D01*
X127952381Y-100214285D01*
X127904762Y-100357143D01*
X127809524Y-100452381D01*
X127714286Y-100500000D01*
X127523810Y-100547619D01*
X127380952Y-100547619D01*
X127190476Y-100500000D01*
X127095238Y-100452381D01*
X127000000Y-100357143D01*
X126952381Y-100214285D01*
X126952381Y-100119047D01*
X127000000Y-99976190D01*
X127047619Y-99928571D01*
X127952381Y-98976190D02*
X127952381Y-99547619D01*
X127952381Y-99261905D02*
X126952381Y-99261905D01*
X127095238Y-99357143D01*
X127190476Y-99452381D01*
X127238095Y-99547619D01*
X135417378Y-106507919D02*
X134710271Y-105800812D01*
X136090813Y-105699797D02*
X136090813Y-105767141D01*
X136023470Y-105901828D01*
X135956126Y-105969171D01*
X135821439Y-106036515D01*
X135686752Y-106036515D01*
X135585737Y-106002843D01*
X135417378Y-105901828D01*
X135316362Y-105800812D01*
X135215347Y-105632454D01*
X135181675Y-105531439D01*
X135181675Y-105396752D01*
X135249020Y-105262064D01*
X135316363Y-105194721D01*
X135451050Y-105127377D01*
X135518393Y-105127377D01*
X135787767Y-104858004D02*
X135787767Y-104790660D01*
X135821439Y-104689645D01*
X135989798Y-104521286D01*
X136090813Y-104487614D01*
X136158157Y-104487614D01*
X136259172Y-104521286D01*
X136326515Y-104588629D01*
X136393859Y-104723316D01*
X136393859Y-105531439D01*
X136831592Y-105093706D01*
X136773810Y-115702381D02*
X136773810Y-114702381D01*
X137821429Y-115607143D02*
X137773810Y-115654762D01*
X137630953Y-115702381D01*
X137535715Y-115702381D01*
X137392857Y-115654762D01*
X137297619Y-115559524D01*
X137250000Y-115464286D01*
X137202381Y-115273810D01*
X137202381Y-115130952D01*
X137250000Y-114940476D01*
X137297619Y-114845238D01*
X137392857Y-114750000D01*
X137535715Y-114702381D01*
X137630953Y-114702381D01*
X137773810Y-114750000D01*
X137821429Y-114797619D01*
X138154762Y-114702381D02*
X138773810Y-114702381D01*
X138440476Y-115083333D01*
X138583334Y-115083333D01*
X138678572Y-115130952D01*
X138726191Y-115178571D01*
X138773810Y-115273810D01*
X138773810Y-115511905D01*
X138726191Y-115607143D01*
X138678572Y-115654762D01*
X138583334Y-115702381D01*
X138297619Y-115702381D01*
X138202381Y-115654762D01*
X138154762Y-115607143D01*
X113841844Y-121012385D02*
X113134737Y-120305278D01*
X114515279Y-120204263D02*
X114515279Y-120271607D01*
X114447936Y-120406294D01*
X114380592Y-120473637D01*
X114245905Y-120540981D01*
X114111218Y-120540981D01*
X114010203Y-120507309D01*
X113841844Y-120406294D01*
X113740828Y-120305278D01*
X113639813Y-120136920D01*
X113606141Y-120035905D01*
X113606141Y-119901218D01*
X113673486Y-119766530D01*
X113740829Y-119699187D01*
X113875516Y-119631843D01*
X113942859Y-119631843D01*
X114481607Y-118958408D02*
X114346920Y-119093096D01*
X114313248Y-119194111D01*
X114313248Y-119261455D01*
X114346920Y-119429813D01*
X114447935Y-119598172D01*
X114717309Y-119867546D01*
X114818325Y-119901218D01*
X114885668Y-119901218D01*
X114986683Y-119867546D01*
X115121371Y-119732859D01*
X115155043Y-119631843D01*
X115155043Y-119564500D01*
X115121371Y-119463485D01*
X114953012Y-119295126D01*
X114851996Y-119261454D01*
X114784653Y-119261454D01*
X114683638Y-119295126D01*
X114548950Y-119429813D01*
X114515278Y-119530828D01*
X114515278Y-119598172D01*
X114548951Y-119699188D01*
X111273810Y-110702381D02*
X111273810Y-109702381D01*
X112321429Y-110607143D02*
X112273810Y-110654762D01*
X112130953Y-110702381D01*
X112035715Y-110702381D01*
X111892857Y-110654762D01*
X111797619Y-110559524D01*
X111750000Y-110464286D01*
X111702381Y-110273810D01*
X111702381Y-110130952D01*
X111750000Y-109940476D01*
X111797619Y-109845238D01*
X111892857Y-109750000D01*
X112035715Y-109702381D01*
X112130953Y-109702381D01*
X112273810Y-109750000D01*
X112321429Y-109797619D01*
X112654762Y-109702381D02*
X113321429Y-109702381D01*
X112892857Y-110702381D01*
X116737615Y-101591844D02*
X117444722Y-100884737D01*
X117545737Y-102265279D02*
X117478393Y-102265279D01*
X117343706Y-102197936D01*
X117276363Y-102130592D01*
X117209019Y-101995905D01*
X117209019Y-101861218D01*
X117242691Y-101760203D01*
X117343706Y-101591844D01*
X117444722Y-101490828D01*
X117613080Y-101389813D01*
X117714095Y-101356141D01*
X117848782Y-101356141D01*
X117983470Y-101423486D01*
X118050813Y-101490829D01*
X118118157Y-101625516D01*
X118118157Y-101692859D01*
X118286515Y-102332622D02*
X118252843Y-102231607D01*
X118252843Y-102164263D01*
X118286515Y-102063248D01*
X118320187Y-102029576D01*
X118421202Y-101995905D01*
X118488545Y-101995905D01*
X118589561Y-102029576D01*
X118724248Y-102164264D01*
X118757920Y-102265279D01*
X118757920Y-102332623D01*
X118724248Y-102433638D01*
X118690577Y-102467309D01*
X118589561Y-102500981D01*
X118522218Y-102500981D01*
X118421203Y-102467309D01*
X118286515Y-102332622D01*
X118185500Y-102298950D01*
X118118157Y-102298950D01*
X118017141Y-102332623D01*
X117882454Y-102467309D01*
X117848782Y-102568325D01*
X117848782Y-102635668D01*
X117882454Y-102736683D01*
X118017141Y-102871371D01*
X118118157Y-102905043D01*
X118185500Y-102905043D01*
X118286515Y-102871371D01*
X118421202Y-102736684D01*
X118454874Y-102635668D01*
X118454874Y-102568325D01*
X118421203Y-102467309D01*
M02*
