G04 #@! TF.FileFunction,Soldermask,Top*
%FSLAX46Y46*%
G04 Gerber Fmt 4.6, Leading zero omitted, Abs format (unit mm)*
G04 Created by KiCad (PCBNEW 4.0.4-stable) date Thursday, December 08, 2016 'AMt' 10:27:16 AM*
%MOMM*%
%LPD*%
G01*
G04 APERTURE LIST*
%ADD10C,0.100000*%
%ADD11R,1.200000X1.300000*%
%ADD12R,1.300000X1.200000*%
%ADD13R,2.127200X2.432000*%
%ADD14O,2.127200X2.432000*%
%ADD15R,2.432000X2.127200*%
%ADD16O,2.432000X2.127200*%
G04 APERTURE END LIST*
D10*
G36*
X134939238Y-123184213D02*
X134090710Y-124032741D01*
X133171472Y-123113503D01*
X134020000Y-122264975D01*
X134939238Y-123184213D01*
X134939238Y-123184213D01*
G37*
G36*
X136282741Y-121840710D02*
X135434213Y-122689238D01*
X134514975Y-121770000D01*
X135363503Y-120921472D01*
X136282741Y-121840710D01*
X136282741Y-121840710D01*
G37*
G36*
X134196776Y-121098248D02*
X133348248Y-121946776D01*
X132429010Y-121027538D01*
X133277538Y-120179010D01*
X134196776Y-121098248D01*
X134196776Y-121098248D01*
G37*
D11*
X124050000Y-126500000D03*
X125950000Y-126500000D03*
X125000000Y-124500000D03*
X125950000Y-99000000D03*
X124050000Y-99000000D03*
X125000000Y-101000000D03*
D10*
G36*
X135434213Y-102810762D02*
X136282741Y-103659290D01*
X135363503Y-104578528D01*
X134514975Y-103730000D01*
X135434213Y-102810762D01*
X135434213Y-102810762D01*
G37*
G36*
X134090710Y-101467259D02*
X134939238Y-102315787D01*
X134020000Y-103235025D01*
X133171472Y-102386497D01*
X134090710Y-101467259D01*
X134090710Y-101467259D01*
G37*
G36*
X133348248Y-103553224D02*
X134196776Y-104401752D01*
X133277538Y-105320990D01*
X132429010Y-104472462D01*
X133348248Y-103553224D01*
X133348248Y-103553224D01*
G37*
D12*
X138750000Y-113700000D03*
X138750000Y-111800000D03*
X136750000Y-112750000D03*
D10*
G36*
X114565787Y-122689238D02*
X113717259Y-121840710D01*
X114636497Y-120921472D01*
X115485025Y-121770000D01*
X114565787Y-122689238D01*
X114565787Y-122689238D01*
G37*
G36*
X115909290Y-124032741D02*
X115060762Y-123184213D01*
X115980000Y-122264975D01*
X116828528Y-123113503D01*
X115909290Y-124032741D01*
X115909290Y-124032741D01*
G37*
G36*
X116651752Y-121946776D02*
X115803224Y-121098248D01*
X116722462Y-120179010D01*
X117570990Y-121027538D01*
X116651752Y-121946776D01*
X116651752Y-121946776D01*
G37*
D12*
X111250000Y-111800000D03*
X111250000Y-113700000D03*
X113250000Y-112750000D03*
D10*
G36*
X115060762Y-102315787D02*
X115909290Y-101467259D01*
X116828528Y-102386497D01*
X115980000Y-103235025D01*
X115060762Y-102315787D01*
X115060762Y-102315787D01*
G37*
G36*
X113717259Y-103659290D02*
X114565787Y-102810762D01*
X115485025Y-103730000D01*
X114636497Y-104578528D01*
X113717259Y-103659290D01*
X113717259Y-103659290D01*
G37*
G36*
X115803224Y-104401752D02*
X116651752Y-103553224D01*
X117570990Y-104472462D01*
X116722462Y-105320990D01*
X115803224Y-104401752D01*
X115803224Y-104401752D01*
G37*
D13*
X142253500Y-134555500D03*
D14*
X139713500Y-134555500D03*
X137173500Y-134555500D03*
X134633500Y-134555500D03*
X132093500Y-134555500D03*
X129553500Y-134555500D03*
X127013500Y-134555500D03*
X124473500Y-134555500D03*
X121933500Y-134555500D03*
X119393500Y-134555500D03*
X116853500Y-134555500D03*
X114313500Y-134555500D03*
X111773500Y-134555500D03*
X109233500Y-134555500D03*
X106693500Y-134555500D03*
D13*
X142253500Y-149795500D03*
D14*
X139713500Y-149795500D03*
X137173500Y-149795500D03*
X134633500Y-149795500D03*
X132093500Y-149795500D03*
X129553500Y-149795500D03*
X127013500Y-149795500D03*
X124473500Y-149795500D03*
X121933500Y-149795500D03*
X119393500Y-149795500D03*
X116853500Y-149795500D03*
X114313500Y-149795500D03*
X111773500Y-149795500D03*
X109233500Y-149795500D03*
X106693500Y-149795500D03*
D15*
X139488001Y-76454000D03*
D16*
X139488001Y-78994000D03*
X139488001Y-81534000D03*
X139488001Y-84074000D03*
X139488001Y-86614000D03*
X139488001Y-89154000D03*
M02*
