G04 #@! TF.FileFunction,Copper,L1,Top,Signal*
%FSLAX46Y46*%
G04 Gerber Fmt 4.6, Leading zero omitted, Abs format (unit mm)*
G04 Created by KiCad (PCBNEW 4.0.4-stable) date Thursday, December 08, 2016 'AMt' 10:27:16 AM*
%MOMM*%
%LPD*%
G01*
G04 APERTURE LIST*
%ADD10C,0.100000*%
%ADD11R,0.800000X0.900000*%
%ADD12R,0.900000X0.800000*%
%ADD13R,1.727200X2.032000*%
%ADD14O,1.727200X2.032000*%
%ADD15R,2.032000X1.727200*%
%ADD16O,2.032000X1.727200*%
%ADD17C,0.600000*%
%ADD18C,0.250000*%
G04 APERTURE END LIST*
D10*
G36*
X134656396Y-123184213D02*
X134090710Y-123749899D01*
X133454314Y-123113503D01*
X134020000Y-122547817D01*
X134656396Y-123184213D01*
X134656396Y-123184213D01*
G37*
G36*
X135999899Y-121840710D02*
X135434213Y-122406396D01*
X134797817Y-121770000D01*
X135363503Y-121204314D01*
X135999899Y-121840710D01*
X135999899Y-121840710D01*
G37*
G36*
X133913934Y-121098248D02*
X133348248Y-121663934D01*
X132711852Y-121027538D01*
X133277538Y-120461852D01*
X133913934Y-121098248D01*
X133913934Y-121098248D01*
G37*
D11*
X124050000Y-126500000D03*
X125950000Y-126500000D03*
X125000000Y-124500000D03*
X125950000Y-99000000D03*
X124050000Y-99000000D03*
X125000000Y-101000000D03*
D10*
G36*
X135434213Y-103093604D02*
X135999899Y-103659290D01*
X135363503Y-104295686D01*
X134797817Y-103730000D01*
X135434213Y-103093604D01*
X135434213Y-103093604D01*
G37*
G36*
X134090710Y-101750101D02*
X134656396Y-102315787D01*
X134020000Y-102952183D01*
X133454314Y-102386497D01*
X134090710Y-101750101D01*
X134090710Y-101750101D01*
G37*
G36*
X133348248Y-103836066D02*
X133913934Y-104401752D01*
X133277538Y-105038148D01*
X132711852Y-104472462D01*
X133348248Y-103836066D01*
X133348248Y-103836066D01*
G37*
D12*
X138750000Y-113700000D03*
X138750000Y-111800000D03*
X136750000Y-112750000D03*
D10*
G36*
X114565787Y-122406396D02*
X114000101Y-121840710D01*
X114636497Y-121204314D01*
X115202183Y-121770000D01*
X114565787Y-122406396D01*
X114565787Y-122406396D01*
G37*
G36*
X115909290Y-123749899D02*
X115343604Y-123184213D01*
X115980000Y-122547817D01*
X116545686Y-123113503D01*
X115909290Y-123749899D01*
X115909290Y-123749899D01*
G37*
G36*
X116651752Y-121663934D02*
X116086066Y-121098248D01*
X116722462Y-120461852D01*
X117288148Y-121027538D01*
X116651752Y-121663934D01*
X116651752Y-121663934D01*
G37*
D12*
X111250000Y-111800000D03*
X111250000Y-113700000D03*
X113250000Y-112750000D03*
D10*
G36*
X115343604Y-102315787D02*
X115909290Y-101750101D01*
X116545686Y-102386497D01*
X115980000Y-102952183D01*
X115343604Y-102315787D01*
X115343604Y-102315787D01*
G37*
G36*
X114000101Y-103659290D02*
X114565787Y-103093604D01*
X115202183Y-103730000D01*
X114636497Y-104295686D01*
X114000101Y-103659290D01*
X114000101Y-103659290D01*
G37*
G36*
X116086066Y-104401752D02*
X116651752Y-103836066D01*
X117288148Y-104472462D01*
X116722462Y-105038148D01*
X116086066Y-104401752D01*
X116086066Y-104401752D01*
G37*
D13*
X142253500Y-134555500D03*
D14*
X139713500Y-134555500D03*
X137173500Y-134555500D03*
X134633500Y-134555500D03*
X132093500Y-134555500D03*
X129553500Y-134555500D03*
X127013500Y-134555500D03*
X124473500Y-134555500D03*
X121933500Y-134555500D03*
X119393500Y-134555500D03*
X116853500Y-134555500D03*
X114313500Y-134555500D03*
X111773500Y-134555500D03*
X109233500Y-134555500D03*
X106693500Y-134555500D03*
D13*
X142253500Y-149795500D03*
D14*
X139713500Y-149795500D03*
X137173500Y-149795500D03*
X134633500Y-149795500D03*
X132093500Y-149795500D03*
X129553500Y-149795500D03*
X127013500Y-149795500D03*
X124473500Y-149795500D03*
X121933500Y-149795500D03*
X119393500Y-149795500D03*
X116853500Y-149795500D03*
X114313500Y-149795500D03*
X111773500Y-149795500D03*
X109233500Y-149795500D03*
X106693500Y-149795500D03*
D15*
X139488001Y-76454000D03*
D16*
X139488001Y-78994000D03*
X139488001Y-81534000D03*
X139488001Y-84074000D03*
X139488001Y-86614000D03*
X139488001Y-89154000D03*
D17*
X114300000Y-128905000D03*
X140208000Y-113919000D03*
X137160000Y-102362000D03*
X125857000Y-96901000D03*
X114808000Y-101219000D03*
X109728000Y-111887000D03*
X113284000Y-123063000D03*
X124079000Y-128270000D03*
X134239000Y-125349000D03*
X109347000Y-129540000D03*
X135255000Y-112776000D03*
X132207000Y-105664000D03*
X124968000Y-102489000D03*
X117729000Y-105410000D03*
X114427000Y-112776000D03*
X117729000Y-120142000D03*
X125095000Y-123063000D03*
X132207000Y-120015000D03*
D18*
X114313500Y-128918500D02*
X114313500Y-134555500D01*
X114300000Y-128905000D02*
X114313500Y-128918500D01*
X139989000Y-113700000D02*
X138750000Y-113700000D01*
X140208000Y-113919000D02*
X139989000Y-113700000D01*
X137160000Y-102362000D02*
X135827355Y-103694645D01*
X135827355Y-103694645D02*
X135398858Y-103694645D01*
X125950000Y-96994000D02*
X125950000Y-99000000D01*
X125857000Y-96901000D02*
X125950000Y-96994000D01*
X114808000Y-101219000D02*
X115940142Y-102351142D01*
X115940142Y-102351142D02*
X115944645Y-102351142D01*
X109815000Y-111800000D02*
X111250000Y-111800000D01*
X109728000Y-111887000D02*
X109815000Y-111800000D01*
X113284000Y-123063000D02*
X114541645Y-121805355D01*
X114541645Y-121805355D02*
X114601142Y-121805355D01*
X124050000Y-128241000D02*
X124050000Y-126500000D01*
X124079000Y-128270000D02*
X124050000Y-128241000D01*
X134055355Y-125165355D02*
X134055355Y-123148858D01*
X134239000Y-125349000D02*
X134055355Y-125165355D01*
X116853500Y-134555500D02*
X116853500Y-124319500D01*
X122996000Y-99000000D02*
X124050000Y-99000000D01*
X122809000Y-99187000D02*
X122996000Y-99000000D01*
X122809000Y-102997000D02*
X122809000Y-99187000D01*
X122682000Y-103124000D02*
X122809000Y-102997000D01*
X121412000Y-103124000D02*
X122682000Y-103124000D01*
X115316000Y-109220000D02*
X121412000Y-103124000D01*
X115316000Y-116205000D02*
X115316000Y-109220000D01*
X119888000Y-120777000D02*
X115316000Y-116205000D01*
X119888000Y-121285000D02*
X119888000Y-120777000D01*
X116853500Y-124319500D02*
X119888000Y-121285000D01*
X109233500Y-129653500D02*
X109233500Y-134555500D01*
X109347000Y-129540000D02*
X109233500Y-129653500D01*
X135281000Y-112750000D02*
X136750000Y-112750000D01*
X135255000Y-112776000D02*
X135281000Y-112750000D01*
X132207000Y-105664000D02*
X133312893Y-104558107D01*
X133312893Y-104558107D02*
X133312893Y-104437107D01*
X125000000Y-102457000D02*
X125000000Y-101000000D01*
X124968000Y-102489000D02*
X125000000Y-102457000D01*
X117729000Y-105410000D02*
X116756107Y-104437107D01*
X116756107Y-104437107D02*
X116687107Y-104437107D01*
X114401000Y-112750000D02*
X113250000Y-112750000D01*
X114427000Y-112776000D02*
X114401000Y-112750000D01*
X116808107Y-121062893D02*
X116687107Y-121062893D01*
X117729000Y-120142000D02*
X116808107Y-121062893D01*
X125000000Y-123158000D02*
X125000000Y-124500000D01*
X125095000Y-123063000D02*
X125000000Y-123158000D01*
X132207000Y-120015000D02*
X133254893Y-121062893D01*
X133254893Y-121062893D02*
X133312893Y-121062893D01*
X119393500Y-134555500D02*
X119393500Y-131939500D01*
X133177213Y-101473000D02*
X134055355Y-102351142D01*
X132969000Y-101473000D02*
X133177213Y-101473000D01*
X130048000Y-104394000D02*
X132969000Y-101473000D01*
X129794000Y-104394000D02*
X130048000Y-104394000D01*
X133731000Y-108331000D02*
X129794000Y-104394000D01*
X133731000Y-115316000D02*
X133731000Y-108331000D01*
X128143000Y-120904000D02*
X133731000Y-115316000D01*
X121793000Y-120904000D02*
X128143000Y-120904000D01*
X121158000Y-121539000D02*
X121793000Y-120904000D01*
X121158000Y-130175000D02*
X121158000Y-121539000D01*
X119393500Y-131939500D02*
X121158000Y-130175000D01*
X121933500Y-134555500D02*
X121933500Y-121779500D01*
X138750000Y-110429000D02*
X138750000Y-111800000D01*
X138557000Y-110236000D02*
X138750000Y-110429000D01*
X134620000Y-110236000D02*
X138557000Y-110236000D01*
X134493000Y-110109000D02*
X134620000Y-110236000D01*
X134493000Y-115697000D02*
X134493000Y-110109000D01*
X128524000Y-121666000D02*
X134493000Y-115697000D01*
X122047000Y-121666000D02*
X128524000Y-121666000D01*
X121933500Y-121779500D02*
X122047000Y-121666000D01*
X124473500Y-134555500D02*
X124473500Y-130569500D01*
X135398858Y-118888858D02*
X135398858Y-121805355D01*
X133985000Y-117475000D02*
X135398858Y-118888858D01*
X133477000Y-117475000D02*
X133985000Y-117475000D01*
X128651000Y-122301000D02*
X133477000Y-117475000D01*
X122555000Y-122301000D02*
X128651000Y-122301000D01*
X122555000Y-128651000D02*
X122555000Y-122301000D01*
X124473500Y-130569500D02*
X122555000Y-128651000D01*
X125950000Y-126500000D02*
X125950000Y-131284000D01*
X127013500Y-132347500D02*
X127013500Y-134555500D01*
X125950000Y-131284000D02*
X127013500Y-132347500D01*
X129553500Y-134555500D02*
X129553500Y-136919500D01*
X114125503Y-124968000D02*
X115944645Y-123148858D01*
X112014000Y-124968000D02*
X114125503Y-124968000D01*
X104140000Y-132842000D02*
X112014000Y-124968000D01*
X104140000Y-136906000D02*
X104140000Y-132842000D01*
X104267000Y-137033000D02*
X104140000Y-136906000D01*
X129440000Y-137033000D02*
X104267000Y-137033000D01*
X129553500Y-136919500D02*
X129440000Y-137033000D01*
X132093500Y-134555500D02*
X132093500Y-137908500D01*
X111250000Y-123954000D02*
X111250000Y-113700000D01*
X103378000Y-131826000D02*
X111250000Y-123954000D01*
X103378000Y-137668000D02*
X103378000Y-131826000D01*
X103505000Y-137795000D02*
X103378000Y-137668000D01*
X131980000Y-137795000D02*
X103505000Y-137795000D01*
X132093500Y-137908500D02*
X131980000Y-137795000D01*
X134633500Y-134555500D02*
X134633500Y-138570500D01*
X113014497Y-102108000D02*
X114601142Y-103694645D01*
X112649000Y-102108000D02*
X113014497Y-102108000D01*
X108712000Y-106045000D02*
X112649000Y-102108000D01*
X108712000Y-124968000D02*
X108712000Y-106045000D01*
X102108000Y-131572000D02*
X108712000Y-124968000D01*
X102108000Y-138176000D02*
X102108000Y-131572000D01*
X102616000Y-138684000D02*
X102108000Y-138176000D01*
X134520000Y-138684000D02*
X102616000Y-138684000D01*
X134633500Y-138570500D02*
X134520000Y-138684000D01*
X139713500Y-134555500D02*
X139713500Y-116826500D01*
X141986000Y-86614000D02*
X139488001Y-86614000D01*
X142240000Y-86868000D02*
X141986000Y-86614000D01*
X142240000Y-114300000D02*
X142240000Y-86868000D01*
X139713500Y-116826500D02*
X142240000Y-114300000D01*
X139488001Y-84074000D02*
X143002000Y-84074000D01*
X135763000Y-148666000D02*
X134633500Y-149795500D01*
X135763000Y-146050000D02*
X135763000Y-148666000D01*
X144907000Y-136906000D02*
X135763000Y-146050000D01*
X144907000Y-116967000D02*
X144907000Y-136906000D01*
X142875000Y-114935000D02*
X144907000Y-116967000D01*
X142875000Y-84201000D02*
X142875000Y-114935000D01*
X143002000Y-84074000D02*
X142875000Y-84201000D01*
X132093500Y-147333500D02*
X132093500Y-149795500D01*
X132080000Y-147320000D02*
X132093500Y-147333500D01*
X104267000Y-147320000D02*
X132080000Y-147320000D01*
X103759000Y-147828000D02*
X104267000Y-147320000D01*
X103759000Y-153035000D02*
X103759000Y-147828000D01*
X103886000Y-153162000D02*
X103759000Y-153035000D01*
X144907000Y-153162000D02*
X103886000Y-153162000D01*
X146050000Y-152019000D02*
X144907000Y-153162000D01*
X146050000Y-116078000D02*
X146050000Y-152019000D01*
X144399000Y-114427000D02*
X146050000Y-116078000D01*
X144399000Y-81661000D02*
X144399000Y-114427000D01*
X141732000Y-78994000D02*
X144399000Y-81661000D01*
X139488001Y-78994000D02*
X141732000Y-78994000D01*
X139488001Y-81534000D02*
X143256000Y-81534000D01*
X129553500Y-152386500D02*
X129553500Y-149795500D01*
X129413000Y-152527000D02*
X129553500Y-152386500D01*
X144780000Y-152527000D02*
X129413000Y-152527000D01*
X145415000Y-151892000D02*
X144780000Y-152527000D01*
X145415000Y-116332000D02*
X145415000Y-151892000D01*
X143764000Y-114681000D02*
X145415000Y-116332000D01*
X143764000Y-82042000D02*
X143764000Y-114681000D01*
X143256000Y-81534000D02*
X143764000Y-82042000D01*
M02*
