M48
;DRILL file {KiCad 4.0.4-stable} date Thursday, December 08, 2016 'AMt' 10:27:36 AM
;FORMAT={-:-/ absolute / inch / decimal}
FMAT,2
INCH,TZ
T1C0.016
T2C0.040
%
G90
G05
M72
T1
X4.305Y-5.1
X4.32Y-4.405
X4.46Y-4.845
X4.5Y-5.075
X4.505Y-4.44
X4.52Y-3.985
X4.635Y-4.15
X4.635Y-4.73
X4.885Y-5.05
X4.92Y-4.035
X4.925Y-4.845
X4.955Y-3.815
X5.205Y-4.16
X5.205Y-4.725
X5.285Y-4.935
X5.325Y-4.44
X5.4Y-4.03
X5.52Y-4.485
T2
X4.2005Y-5.2975
X4.2005Y-5.8975
X4.3005Y-5.2975
X4.3005Y-5.8975
X4.4005Y-5.2975
X4.4005Y-5.8975
X4.5005Y-5.2975
X4.5005Y-5.8975
X4.6005Y-5.2975
X4.6005Y-5.8975
X4.7005Y-5.2975
X4.7005Y-5.8975
X4.8005Y-5.2975
X4.8005Y-5.8975
X4.9005Y-5.2975
X4.9005Y-5.8975
X5.0005Y-5.2975
X5.0005Y-5.8975
X5.1005Y-5.2975
X5.1005Y-5.8975
X5.2005Y-5.2975
X5.2005Y-5.8975
X5.3005Y-5.2975
X5.3005Y-5.8975
X5.4005Y-5.2975
X5.4005Y-5.8975
X5.4917Y-3.01
X5.4917Y-3.11
X5.4917Y-3.21
X5.4917Y-3.31
X5.4917Y-3.41
X5.4917Y-3.51
X5.5005Y-5.2975
X5.5005Y-5.8975
X5.6005Y-5.2975
X5.6005Y-5.8975
T0
M30
