G04 #@! TF.FileFunction,Legend,Bot*
%FSLAX46Y46*%
G04 Gerber Fmt 4.6, Leading zero omitted, Abs format (unit mm)*
G04 Created by KiCad (PCBNEW 4.0.4-stable) date Thursday, December 08, 2016 'AMt' 10:27:16 AM*
%MOMM*%
%LPD*%
G01*
G04 APERTURE LIST*
%ADD10C,0.100000*%
%ADD11C,0.150000*%
G04 APERTURE END LIST*
D10*
D11*
X140983500Y-133285500D02*
X105423500Y-133285500D01*
X105423500Y-133285500D02*
X105423500Y-135825500D01*
X105423500Y-135825500D02*
X140983500Y-135825500D01*
X143803500Y-136105500D02*
X142253500Y-136105500D01*
X140983500Y-135825500D02*
X140983500Y-133285500D01*
X142253500Y-133005500D02*
X143803500Y-133005500D01*
X143803500Y-133005500D02*
X143803500Y-136105500D01*
X140983500Y-148525500D02*
X105423500Y-148525500D01*
X105423500Y-148525500D02*
X105423500Y-151065500D01*
X105423500Y-151065500D02*
X140983500Y-151065500D01*
X143803500Y-151345500D02*
X142253500Y-151345500D01*
X140983500Y-151065500D02*
X140983500Y-148525500D01*
X142253500Y-148245500D02*
X143803500Y-148245500D01*
X143803500Y-148245500D02*
X143803500Y-151345500D01*
X140758001Y-77724000D02*
X140758001Y-90424000D01*
X140758001Y-90424000D02*
X138218001Y-90424000D01*
X138218001Y-90424000D02*
X138218001Y-77724000D01*
X141038001Y-74904000D02*
X141038001Y-76454000D01*
X140758001Y-77724000D02*
X138218001Y-77724000D01*
X137938001Y-76454000D02*
X137938001Y-74904000D01*
X137938001Y-74904000D02*
X141038001Y-74904000D01*
X142991595Y-129907881D02*
X142991595Y-128907881D01*
X142610642Y-128907881D01*
X142515404Y-128955500D01*
X142467785Y-129003119D01*
X142420166Y-129098357D01*
X142420166Y-129241214D01*
X142467785Y-129336452D01*
X142515404Y-129384071D01*
X142610642Y-129431690D01*
X142991595Y-129431690D01*
X141467785Y-129907881D02*
X142039214Y-129907881D01*
X141753500Y-129907881D02*
X141753500Y-128907881D01*
X141848738Y-129050738D01*
X141943976Y-129145976D01*
X142039214Y-129193595D01*
X142991595Y-145147881D02*
X142991595Y-144147881D01*
X142610642Y-144147881D01*
X142515404Y-144195500D01*
X142467785Y-144243119D01*
X142420166Y-144338357D01*
X142420166Y-144481214D01*
X142467785Y-144576452D01*
X142515404Y-144624071D01*
X142610642Y-144671690D01*
X142991595Y-144671690D01*
X142039214Y-144243119D02*
X141991595Y-144195500D01*
X141896357Y-144147881D01*
X141658261Y-144147881D01*
X141563023Y-144195500D01*
X141515404Y-144243119D01*
X141467785Y-144338357D01*
X141467785Y-144433595D01*
X141515404Y-144576452D01*
X142086833Y-145147881D01*
X141467785Y-145147881D01*
X134840382Y-75715905D02*
X133840382Y-75715905D01*
X133840382Y-76096858D01*
X133888001Y-76192096D01*
X133935620Y-76239715D01*
X134030858Y-76287334D01*
X134173715Y-76287334D01*
X134268953Y-76239715D01*
X134316572Y-76192096D01*
X134364191Y-76096858D01*
X134364191Y-75715905D01*
X133840382Y-76620667D02*
X133840382Y-77239715D01*
X134221334Y-76906381D01*
X134221334Y-77049239D01*
X134268953Y-77144477D01*
X134316572Y-77192096D01*
X134411811Y-77239715D01*
X134649906Y-77239715D01*
X134745144Y-77192096D01*
X134792763Y-77144477D01*
X134840382Y-77049239D01*
X134840382Y-76763524D01*
X134792763Y-76668286D01*
X134745144Y-76620667D01*
M02*
