G04 #@! TF.FileFunction,Copper,L2,Bot,Signal*
%FSLAX46Y46*%
G04 Gerber Fmt 4.6, Leading zero omitted, Abs format (unit mm)*
G04 Created by KiCad (PCBNEW 4.0.4-stable) date Thursday, December 08, 2016 'AMt' 10:27:16 AM*
%MOMM*%
%LPD*%
G01*
G04 APERTURE LIST*
%ADD10C,0.100000*%
%ADD11R,1.727200X2.032000*%
%ADD12O,1.727200X2.032000*%
%ADD13R,2.032000X1.727200*%
%ADD14O,2.032000X1.727200*%
%ADD15C,0.600000*%
%ADD16C,0.250000*%
G04 APERTURE END LIST*
D10*
D11*
X142253500Y-134555500D03*
D12*
X139713500Y-134555500D03*
X137173500Y-134555500D03*
X134633500Y-134555500D03*
X132093500Y-134555500D03*
X129553500Y-134555500D03*
X127013500Y-134555500D03*
X124473500Y-134555500D03*
X121933500Y-134555500D03*
X119393500Y-134555500D03*
X116853500Y-134555500D03*
X114313500Y-134555500D03*
X111773500Y-134555500D03*
X109233500Y-134555500D03*
X106693500Y-134555500D03*
D11*
X142253500Y-149795500D03*
D12*
X139713500Y-149795500D03*
X137173500Y-149795500D03*
X134633500Y-149795500D03*
X132093500Y-149795500D03*
X129553500Y-149795500D03*
X127013500Y-149795500D03*
X124473500Y-149795500D03*
X121933500Y-149795500D03*
X119393500Y-149795500D03*
X116853500Y-149795500D03*
X114313500Y-149795500D03*
X111773500Y-149795500D03*
X109233500Y-149795500D03*
X106693500Y-149795500D03*
D13*
X139488001Y-76454000D03*
D14*
X139488001Y-78994000D03*
X139488001Y-81534000D03*
X139488001Y-84074000D03*
X139488001Y-86614000D03*
X139488001Y-89154000D03*
D15*
X114300000Y-128905000D03*
X140208000Y-113919000D03*
X137160000Y-102362000D03*
X125857000Y-96901000D03*
X114808000Y-101219000D03*
X109728000Y-111887000D03*
X113284000Y-123063000D03*
X124079000Y-128270000D03*
X134239000Y-125349000D03*
X109347000Y-129540000D03*
X135255000Y-112776000D03*
X132207000Y-105664000D03*
X124968000Y-102489000D03*
X117729000Y-105410000D03*
X114427000Y-112776000D03*
X117729000Y-120142000D03*
X125095000Y-123063000D03*
X132207000Y-120015000D03*
D16*
X134239000Y-125349000D02*
X134239000Y-126619000D01*
X131953000Y-128905000D02*
X114300000Y-128905000D01*
X134239000Y-126619000D02*
X131953000Y-128905000D01*
X137160000Y-102362000D02*
X138303000Y-103505000D01*
X140335000Y-113792000D02*
X140208000Y-113919000D01*
X140335000Y-105537000D02*
X140335000Y-113792000D01*
X138303000Y-103505000D02*
X140335000Y-105537000D01*
X125857000Y-96901000D02*
X132207000Y-96901000D01*
X137160000Y-101854000D02*
X137160000Y-102362000D01*
X132207000Y-96901000D02*
X137160000Y-101854000D01*
X114808000Y-101219000D02*
X119126000Y-96901000D01*
X119126000Y-96901000D02*
X125857000Y-96901000D01*
X109728000Y-111887000D02*
X109728000Y-106299000D01*
X109728000Y-106299000D02*
X114808000Y-101219000D01*
X113284000Y-123063000D02*
X113157000Y-123063000D01*
X109728000Y-119634000D02*
X109728000Y-111887000D01*
X113157000Y-123063000D02*
X109728000Y-119634000D01*
X124079000Y-128270000D02*
X118491000Y-128270000D01*
X118491000Y-128270000D02*
X113284000Y-123063000D01*
X134239000Y-125349000D02*
X134239000Y-125730000D01*
X131699000Y-128270000D02*
X124079000Y-128270000D01*
X134239000Y-125730000D02*
X131699000Y-128270000D01*
X132207000Y-120015000D02*
X133985000Y-118237000D01*
X132334000Y-129540000D02*
X109347000Y-129540000D01*
X135001000Y-126873000D02*
X132334000Y-129540000D01*
X135001000Y-124968000D02*
X135001000Y-126873000D01*
X137160000Y-122809000D02*
X135001000Y-124968000D01*
X137160000Y-121666000D02*
X137160000Y-122809000D01*
X133985000Y-118491000D02*
X137160000Y-121666000D01*
X133985000Y-118237000D02*
X133985000Y-118491000D01*
X132207000Y-105664000D02*
X134874000Y-108331000D01*
X135255000Y-108712000D02*
X135255000Y-112776000D01*
X134874000Y-108331000D02*
X135255000Y-108712000D01*
X124968000Y-102489000D02*
X129032000Y-102489000D01*
X129032000Y-102489000D02*
X132207000Y-105664000D01*
X117729000Y-105410000D02*
X120650000Y-102489000D01*
X120650000Y-102489000D02*
X124968000Y-102489000D01*
X114427000Y-112776000D02*
X114427000Y-108712000D01*
X114427000Y-108712000D02*
X117729000Y-105410000D01*
X114554000Y-112903000D02*
X114427000Y-112776000D01*
X114554000Y-116967000D02*
X114554000Y-112903000D01*
X117729000Y-120142000D02*
X114554000Y-116967000D01*
X120650000Y-123063000D02*
X117729000Y-120142000D01*
X125095000Y-123063000D02*
X120650000Y-123063000D01*
X132207000Y-120015000D02*
X131953000Y-120015000D01*
X128905000Y-123063000D02*
X125095000Y-123063000D01*
X131953000Y-120015000D02*
X128905000Y-123063000D01*
M02*
